<svg width="25" height="25" viewBox="0 0 25 25" fill="none" xmlns="http://www.w3.org/2000/svg">
<path fill-rule="evenodd" clip-rule="evenodd" d="M12.5 24.1667C14.0759 24.1667 15.6363 23.8564 17.0922 23.2533C18.5481 22.6502 19.871 21.7663 20.9853 20.652C22.0996 19.5377 22.9835 18.2149 23.5866 16.7589C24.1896 15.303 24.5 13.7426 24.5 12.1667C24.5 10.5909 24.1896 9.03045 23.5866 7.57455C22.9835 6.11864 22.0996 4.79577 20.9853 3.68147C19.871 2.56716 18.5481 1.68325 17.0922 1.08019C15.6363 0.477137 14.0759 0.166748 12.5 0.166748C9.3174 0.166748 6.26516 1.43103 4.01472 3.68147C1.76428 5.9319 0.5 8.98415 0.5 12.1667C0.5 15.3493 1.76428 18.4016 4.01472 20.652C6.26516 22.9025 9.3174 24.1667 12.5 24.1667ZM12.1907 17.0201L18.8573 9.02008L16.8093 7.31341L11.076 14.1921L8.10933 11.2241L6.224 13.1094L10.224 17.1094L11.256 18.1414L12.1907 17.0201Z" fill="white"/>
</svg>
