<svg width="45" height="45" viewBox="0 0 45 45" fill="none" xmlns="http://www.w3.org/2000/svg">
<g clip-path="url(#clip0_6010_159)">
<path d="M22.5 45C34.9264 45 45 34.9264 45 22.5C45 10.0736 34.9264 0 22.5 0C10.0736 0 0 10.0736 0 22.5C0 34.9264 10.0736 45 22.5 45Z" fill="#26A17B"/>
<path fill-rule="evenodd" clip-rule="evenodd" d="M25.2028 24.445V24.4422C25.0481 24.4534 24.2508 24.5012 22.4719 24.5012C21.0516 24.5012 20.0517 24.459 19.7002 24.4422V24.4464C14.2327 24.2059 10.1517 23.2539 10.1517 22.1148C10.1517 20.9758 14.2327 20.0251 19.7002 19.7804V23.4986C20.0573 23.5239 21.0811 23.5844 22.4958 23.5844C24.1931 23.5844 25.0439 23.514 25.2028 23.5V19.7833C30.6591 20.0265 34.7302 20.9786 34.7302 22.1148C34.7302 23.2539 30.6591 24.2031 25.2028 24.445ZM25.2028 19.3965V16.0694H32.8162V10.9956H12.0867V16.0694H19.7002V19.3951C13.5127 19.6792 8.85938 20.9054 8.85938 22.3736C8.85938 23.8417 13.5127 25.0665 19.7002 25.352V36.0142H25.2028V25.3492C31.3805 25.0651 36.0225 23.8403 36.0225 22.3736C36.0225 20.9069 31.3805 19.682 25.2028 19.3965Z" fill="white"/>
</g>
<defs>
<clipPath id="clip0_6010_159">
<rect width="45" height="45" fill="white"/>
</clipPath>
</defs>
</svg>
