<svg width="57" height="57" viewBox="0 0 57 57" fill="none" xmlns="http://www.w3.org/2000/svg">
<path d="M28.4999 56.9998C43.3656 56.9998 55.4166 44.9488 55.4166 30.0832C55.4166 15.2175 43.3656 3.1665 28.4999 3.1665C13.6343 3.1665 1.58325 15.2175 1.58325 30.0832C1.58325 44.9488 13.6343 56.9998 28.4999 56.9998Z" fill="#F4900C"/>
<path d="M28.4999 53.8333C43.3656 53.8333 55.4166 41.7823 55.4166 26.9167C55.4166 12.051 43.3656 0 28.4999 0C13.6343 0 1.58325 12.051 1.58325 26.9167C1.58325 41.7823 13.6343 53.8333 28.4999 53.8333Z" fill="#FFCC4D"/>
<path d="M28.4999 50.6668C40.7422 50.6668 50.6666 40.7425 50.6666 28.5002C50.6666 16.2579 40.7422 6.3335 28.4999 6.3335C16.2576 6.3335 6.33325 16.2579 6.33325 28.5002C6.33325 40.7425 16.2576 50.6668 28.4999 50.6668Z" fill="#FFE8B6"/>
<path d="M28.1667 49.3334C40.409 49.3334 50.3334 39.409 50.3334 27.1667C50.3334 14.9244 40.409 5 28.1667 5C15.9244 5 6 14.9244 6 27.1667C6 39.409 15.9244 49.3334 28.1667 49.3334Z" fill="#FFAC33"/>
<path d="M12 17H16.67C18.1551 17 19.2555 17.3981 19.9712 18.1943C20.7048 18.9905 21.0716 20.1576 21.0716 21.6957V31.3043C21.0716 32.8424 20.7048 34.0095 19.9712 34.8057C19.2555 35.6019 18.1551 36 16.67 36H12V17ZM14.9523 19.7143V33.2857H16.6163C17.0815 33.2857 17.4483 33.15 17.7167 32.8786C17.9851 32.6071 18.1193 32.1276 18.1193 31.44V21.56C18.1193 20.8724 17.9851 20.3929 17.7167 20.1214C17.4483 19.85 17.0815 19.7143 16.6163 19.7143H14.9523Z" fill="#854F0F"/>
<path d="M22.1506 17H31.2758V19.7143H28.1894V36H25.2371V19.7143H22.1506V17Z" fill="#854F0F"/>
<path d="M38.8807 30.49L40.8936 17H45V36H42.2087V22.3743L40.169 36H37.3777L35.1769 22.5643V36H32.6004V17H36.7068L38.8807 30.49Z" fill="#854F0F"/>
</svg>
