<svg width="45" height="45" viewBox="0 0 45 45" fill="none" xmlns="http://www.w3.org/2000/svg">
<g clip-path="url(#clip0_6010_171)">
<path d="M22.5 45C34.9264 45 45 34.9264 45 22.5C45 10.0736 34.9264 0 22.5 0C10.0736 0 0 10.0736 0 22.5C0 34.9264 10.0736 45 22.5 45Z" fill="#5326A1"/>
<path d="M10 15H13.5379C14.6629 15 15.4966 15.3143 16.0388 15.9429C16.5945 16.5714 16.8724 17.4929 16.8724 18.7071V26.2929C16.8724 27.5071 16.5945 28.4286 16.0388 29.0571C15.4966 29.6857 14.6629 30 13.5379 30H10V15ZM12.2366 17.1429V27.8571H13.4972C13.8496 27.8571 14.1275 27.75 14.3308 27.5357C14.5342 27.3214 14.6358 26.9429 14.6358 26.4V18.6C14.6358 18.0571 14.5342 17.6786 14.3308 17.4643C14.1275 17.25 13.8496 17.1429 13.4972 17.1429H12.2366Z" fill="white"/>
<path d="M17.6898 15H24.6029V17.1429H22.2647V30H20.0281V17.1429H17.6898V15Z" fill="white"/>
<path d="M30.3642 25.65L31.8891 15H35V30H32.8854V19.2429L31.3401 30H29.2255L27.5583 19.3929V30H25.6064V15H28.7172L30.3642 25.65Z" fill="white"/>
</g>
<defs>
<clipPath id="clip0_6010_171">
<rect width="45" height="45" fill="white"/>
</clipPath>
</defs>
</svg>
