<svg width="120" height="58" viewBox="0 0 120 58" fill="none" xmlns="http://www.w3.org/2000/svg">
<g clip-path="url(#clip0_6010_705)">
<path d="M91.0334 57.6667C106.774 57.6667 119.533 44.9069 119.533 29.1667C119.533 13.4266 106.774 0.666748 91.0334 0.666748C75.2933 0.666748 62.5334 13.4266 62.5334 29.1667C62.5334 44.9069 75.2933 57.6667 91.0334 57.6667Z" fill="#26A17B"/>
<path fill-rule="evenodd" clip-rule="evenodd" d="M94.4571 31.6301V31.6266C94.2611 31.6408 93.2512 31.7014 90.9979 31.7014C89.1988 31.7014 87.9323 31.6479 87.487 31.6266V31.6319C80.5615 31.3273 75.3923 30.1214 75.3923 28.6786C75.3923 27.2358 80.5615 26.0316 87.487 25.7217V30.4313C87.9395 30.4634 89.2362 30.54 91.0282 30.54C93.1781 30.54 94.2558 30.4509 94.4571 30.4331V25.7253C101.368 26.0334 106.525 27.2393 106.525 28.6786C106.525 30.1214 101.368 31.3237 94.4571 31.6301ZM94.4571 25.2354V21.021H104.101V14.5942H77.8433V21.021H87.487V25.2336C79.6495 25.5935 73.7554 27.1467 73.7554 29.0063C73.7554 30.866 79.6495 32.4174 87.487 32.779V46.2845H94.4571V32.7755C102.282 32.4156 108.162 30.8642 108.162 29.0063C108.162 27.1485 102.282 25.597 94.4571 25.2354Z" fill="white"/>
</g>
<g clip-path="url(#clip1_6010_705)">
<path d="M28.9668 57.6667C44.7069 57.6667 57.4668 44.9069 57.4668 29.1667C57.4668 13.4266 44.7069 0.666748 28.9668 0.666748C13.2267 0.666748 0.466797 13.4266 0.466797 29.1667C0.466797 44.9069 13.2267 57.6667 28.9668 57.6667Z" fill="#5326A1"/>
<path d="M13.1335 19.6667H17.6148C19.0399 19.6667 20.0959 20.0648 20.7827 20.861C21.4866 21.6572 21.8386 22.8244 21.8386 24.3625V33.971C21.8386 35.5091 21.4866 36.6763 20.7827 37.4725C20.0959 38.2687 19.0399 38.6667 17.6148 38.6667H13.1335V19.6667ZM15.9665 22.381V35.9525H17.5633C18.0097 35.9525 18.3617 35.8167 18.6193 35.5453C18.8768 35.2739 19.0056 34.7944 19.0056 34.1067V24.2267C19.0056 23.5391 18.8768 23.0596 18.6193 22.7882C18.3617 22.5167 18.0097 22.381 17.5633 22.381H15.9665Z" fill="white"/>
<path d="M22.874 19.6667H31.6306V22.381H28.6688V38.6667H25.8358V22.381H22.874V19.6667Z" fill="white"/>
<path d="M38.9282 33.1567L40.8598 19.6667H44.8002V38.6667H42.1217V25.041L40.1644 38.6667H37.4859L35.374 25.231V38.6667H32.9016V19.6667H36.842L38.9282 33.1567Z" fill="white"/>
</g>
<path d="M71.4001 24.7334L66.3334 19.6667V23.4667H57.4668V26.0001H66.3334V29.8001M53.6668 27.2667L48.6001 32.3334L53.6668 37.4001V33.6001H62.5334V31.0667H53.6668V27.2667Z" fill="#FFFF00"/>
<defs>
<clipPath id="clip0_6010_705">
<rect width="57" height="57" fill="white" transform="translate(62.5334 0.666748)"/>
</clipPath>
<clipPath id="clip1_6010_705">
<rect width="57" height="57" fill="white" transform="translate(0.466797 0.666748)"/>
</clipPath>
</defs>
</svg>
