<svg width="26" height="25" viewBox="0 0 26 25" fill="none" xmlns="http://www.w3.org/2000/svg">
<g clip-path="url(#clip0_6010_185)">
<path d="M24.5 12.5C24.5 18.8513 19.3513 24 13 24C6.64873 24 1.5 18.8513 1.5 12.5C1.5 6.14873 6.64873 1 13 1C19.3513 1 24.5 6.14873 24.5 12.5Z" stroke="white" stroke-width="2"/>
<path d="M6.05566 8.33325H8.02115C8.64618 8.33325 9.10931 8.50786 9.41054 8.85706C9.71929 9.20627 9.87367 9.71817 9.87367 10.3928V14.6071C9.87367 15.2817 9.71929 15.7936 9.41054 16.1428C9.10931 16.492 8.64618 16.6666 8.02115 16.6666H6.05566V8.33325ZM7.29821 9.52373V15.4761H7.99855C8.19435 15.4761 8.34873 15.4166 8.46168 15.2975C8.57464 15.1785 8.63112 14.9682 8.63112 14.6666V10.3333C8.63112 10.0317 8.57464 9.82135 8.46168 9.7023C8.34873 9.58325 8.19435 9.52373 7.99855 9.52373H7.29821Z" fill="white"/>
<path d="M10.3278 8.33325H14.1684V9.52373H12.8694V16.6666H11.6268V9.52373H10.3278V8.33325Z" fill="white"/>
<path d="M17.3691 14.2499L18.2163 8.33325H19.9446V16.6666H18.7698V10.6904L17.9113 16.6666H16.7365L15.8103 10.7737V16.6666H14.7259V8.33325H16.4541L17.3691 14.2499Z" fill="white"/>
</g>
<defs>
<clipPath id="clip0_6010_185">
<rect width="25" height="25" fill="white" transform="translate(0.5)"/>
</clipPath>
</defs>
</svg>
