<svg width="24" height="24" viewBox="0 0 24 24" fill="none" xmlns="http://www.w3.org/2000/svg">
<path d="M7.49993 1.71423C6.64745 1.71423 5.82988 2.05288 5.22709 2.65568C4.62429 3.25847 4.28564 4.07604 4.28564 4.92852V19.0714C4.28564 19.9239 4.62429 20.7414 5.22709 21.3442C5.82988 21.947 6.64745 22.2857 7.49993 22.2857H19.0714C19.2419 22.2857 19.4054 22.2179 19.5259 22.0974C19.6465 21.9768 19.7142 21.8133 19.7142 21.6428C19.7142 21.4723 19.6465 21.3088 19.5259 21.1882C19.4054 21.0677 19.2419 20.9999 19.0714 20.9999H7.49993C7.02556 20.9999 6.56783 20.8251 6.21425 20.5088C5.86068 20.1926 5.63607 19.7571 5.58336 19.2857H18.4285C18.7695 19.2857 19.0965 19.1502 19.3376 18.9091C19.5788 18.668 19.7142 18.3409 19.7142 17.9999V4.92852C19.7142 4.07604 19.3756 3.25847 18.7728 2.65568C18.17 2.05288 17.3524 1.71423 16.4999 1.71423H7.49993ZM18.4285 4.92852V17.9999H5.57136V4.92852C5.57136 4.41703 5.77455 3.92649 6.13622 3.56481C6.4979 3.20314 6.98844 2.99995 7.49993 2.99995H16.4999C17.0114 2.99995 17.502 3.20314 17.8636 3.56481C18.2253 3.92649 18.4285 4.41703 18.4285 4.92852ZM14.1428 8.14281C14.1428 8.71113 13.917 9.25617 13.5152 9.65803C13.1133 10.0599 12.5683 10.2857 11.9999 10.2857C11.4316 10.2857 10.8866 10.0599 10.4847 9.65803C10.0828 9.25617 9.85707 8.71113 9.85707 8.14281C9.85707 7.57448 10.0828 7.02944 10.4847 6.62758C10.8866 6.22571 11.4316 5.99995 11.9999 5.99995C12.5683 5.99995 13.1133 6.22571 13.5152 6.62758C13.917 7.02944 14.1428 7.57448 14.1428 8.14281ZM15.8571 12.7499C15.8571 14.0837 14.7548 15.4285 11.9999 15.4285C9.24507 15.4285 8.14279 14.0888 8.14279 12.7499V12.6617C8.14279 11.8217 8.82336 11.1428 9.6625 11.1428H14.3374C15.1774 11.1428 15.8571 11.8225 15.8571 12.6617V12.7499Z" fill="#8A52D4"/>
</svg>
