<svg width="47" height="33" viewBox="0 0 47 33" fill="none" xmlns="http://www.w3.org/2000/svg">
<path d="M13.0319 8.44287C17.242 8.44287 20.6451 10.5979 24.3086 16.8554C27.3585 22.0654 26.7759 27.7304 23.5352 29.4679C20.2945 31.2054 19.0698 30.8879 17.6313 30.8104C16.2932 30.7404 13.2278 25.1029 13.2278 25.1029C13.2278 25.1029 10.428 30.7154 8.48406 30.6879C7.75187 30.6779 3.83828 30.7354 1.80672 28.2479C-0.224844 25.7604 -0.129453 21.5379 1.80672 17.7829C3.74289 14.0279 7.80344 8.44287 13.0319 8.44287Z" fill="#F2A159"/>
<path d="M27.2605 9.33516C27.3714 12.1552 25.1568 13.8402 22.7591 13.8402C20.3615 13.8402 18.8404 11.8177 18.8404 9.52266C18.8404 7.22766 20.9441 5.44016 23.3418 5.44016C25.7395 5.44016 27.1703 7.04266 27.2605 9.33516ZM3.11125 13.0427C0.344923 12.1677 -0.482655 10.1452 0.257267 7.88016C0.997189 5.61516 3.51859 4.51266 5.77445 5.20516C8.03031 5.89766 8.98164 8.33516 8.24172 10.6027C7.5018 12.8702 5.1918 13.6977 3.11125 13.0427Z" fill="#F2A159"/>
<path d="M6.49898 9.19293C6.49898 10.3854 5.53219 11.2104 4.36945 11.2104C3.20672 11.2104 2.33789 10.2904 2.33789 9.09793C2.33789 7.90543 3.20672 6.94043 4.36945 6.94043C5.86992 6.94043 6.49898 8.00293 6.49898 9.19293ZM22.8443 11.5454C21.6197 11.4429 20.854 10.4354 20.9571 9.31293C21.0602 8.19043 22.2616 7.35293 23.4862 7.45793C24.7109 7.56293 25.4456 8.56293 25.3451 9.68543C25.2136 11.1329 24.0689 11.6504 22.8443 11.5454Z" fill="#FFA7AA"/>
<path d="M19.9027 18.5075C20.0213 19.3675 19.7815 20.2675 18.905 20.285C17.9871 20.3025 17.67 19.535 17.5798 18.6725C17.4896 17.81 17.8608 17.3125 18.5234 17.2175C19.3484 17.1 19.8073 17.805 19.9027 18.5075Z" fill="#2E3030"/>
<path d="M9.46875 18.5953C9.49969 19.4628 9.13618 20.4078 8.19258 20.3378C7.27735 20.2703 7.00664 19.2128 7.12782 18.2953C7.24125 17.4353 7.62024 17.1278 8.28797 17.0978C9.12071 17.0628 9.44555 17.8878 9.46875 18.5953Z" fill="#2E2D31"/>
<path d="M13.3823 29.2075C13.3823 29.2075 15.7052 30.685 17.6646 30.8275C19.6239 30.97 21.9107 30.23 22.0551 27.45C22.2201 24.2825 19.7683 22.5575 19.1521 22.1C18.7861 21.8275 16.9014 20.5525 16.9014 20.5525C16.9014 20.5525 16.3936 16.68 16.2131 15.415C16.0326 14.1475 15.8908 12.1775 13.3823 12.1425C10.9872 12.1075 10.6907 14.5 10.6598 15.275C10.6237 16.19 10.2602 20.59 10.2602 20.59C10.2602 20.59 8.89121 21.47 7.9373 22.175C7.10199 22.79 4.94668 24.3575 5.03433 27.0325C5.10652 29.285 6.34144 30.7625 8.95308 30.6925C12.0804 30.6025 13.3823 29.2075 13.3823 29.2075Z" fill="#FFD2B1"/>
<path d="M11.833 26.1003C11.833 26.1003 11.6422 28.4053 12.462 28.7753C13.1401 29.0803 13.5036 28.1178 13.5036 28.1178C13.5036 28.1178 13.7305 28.6753 14.277 28.7753C15.3186 28.9628 15.0762 25.8878 15.0762 25.8878L13.5268 25.0903L11.833 26.1003Z" fill="#FFFEFD"/>
<path d="M12.4749 24.7502C12.4749 24.4202 12.0031 24.2577 11.5545 23.9652C11.2761 23.7827 10.9255 23.5552 11.0234 23.1802C11.1214 22.8052 11.833 22.7702 13.2613 22.7452C14.6895 22.7227 15.6924 22.8502 15.6434 23.2252C15.5945 23.6002 15.1588 23.8577 14.8339 24.0927C14.6818 24.2027 14.1456 24.4927 14.1688 24.7027C14.192 24.9127 14.821 25.4002 15.3289 25.4077C16.1745 25.4202 16.5638 24.9377 16.7572 24.7277C16.9506 24.5177 17.1929 24.2827 17.5074 24.4227C17.822 24.5627 17.5435 25.3852 16.9145 25.9477C16.2854 26.5102 15.1613 26.6527 14.4343 26.3477C13.7073 26.0427 13.3824 25.6077 13.3824 25.6077C13.3824 25.6077 12.5961 26.6977 11.3148 26.5102C10.3428 26.3677 9.71891 25.7602 9.42759 25.2677C9.13626 24.7752 9.22907 24.4827 9.47657 24.4477C9.7911 24.4002 9.98446 24.7527 10.348 24.9177C10.7115 25.0827 10.9899 25.2802 11.57 25.2577C12.1475 25.2302 12.4749 24.9852 12.4749 24.7502Z" fill="#2F302D"/>
<path d="M3.59599 27.8676C3.4774 27.8676 3.36138 27.8126 3.29177 27.7076C3.18349 27.5451 3.2299 27.3276 3.39747 27.2226C3.45419 27.1876 4.7974 26.3426 5.55021 25.9426C6.30044 25.5426 7.61013 24.8626 7.61013 24.8626C7.61013 24.8626 7.89372 24.6676 8.10255 24.9651C8.31138 25.2651 7.95302 25.4801 7.95302 25.4801C7.95302 25.4801 6.64849 26.1601 5.89826 26.5576C5.16865 26.9451 3.80482 27.8026 3.79193 27.8101C3.73005 27.8501 3.66302 27.8676 3.59599 27.8676ZM5.0913 29.6201C5.00622 29.6201 4.92115 29.5926 4.85412 29.5326C4.70458 29.4051 4.68911 29.1851 4.8206 29.0376C4.84896 29.0076 5.52185 28.2626 6.27724 27.6001C7.02747 26.9426 7.7313 26.3326 7.7313 26.3326C7.88083 26.2026 8.10771 26.2151 8.24177 26.3601C8.37583 26.5051 8.36294 26.7251 8.21341 26.8551C8.21341 26.8551 7.51216 27.4651 6.76193 28.1226C6.03747 28.7576 5.36974 29.4926 5.36458 29.5001C5.2924 29.5801 5.19185 29.6201 5.0913 29.6201ZM23.4811 28.0701C23.396 28.0701 23.3083 28.0401 23.2413 27.9801C23.2387 27.9776 22.7721 27.5826 21.3335 26.7276C19.8717 25.8576 19.0054 25.4601 18.9977 25.4551C18.9149 25.4135 18.852 25.3424 18.8221 25.2568C18.7922 25.1712 18.7977 25.0776 18.8374 24.9958C18.8771 24.914 18.9479 24.8503 19.035 24.818C19.1221 24.7857 19.2187 24.7874 19.3045 24.8226C19.3406 24.8401 20.2094 25.2401 21.7099 26.1301C23.2207 27.0276 23.7028 27.4401 23.7208 27.4576C23.8704 27.5876 23.8807 27.8076 23.7492 27.9526C23.677 28.0326 23.579 28.0701 23.4811 28.0701ZM21.8362 29.4551C21.7408 29.4551 21.6454 29.4176 21.5733 29.3451C21.5655 29.3376 20.774 28.5251 19.9722 27.8151C19.1859 27.1201 18.3145 26.5926 18.3068 26.5876C18.1366 26.4851 18.0851 26.2701 18.1908 26.1051C18.2965 25.9401 18.5182 25.8901 18.6883 25.9926C18.727 26.0151 19.6216 26.5576 20.4595 27.2976C21.2819 28.0251 22.0683 28.8301 22.0992 28.8651C22.2358 29.0051 22.2281 29.2276 22.0837 29.3601C22.0141 29.4251 21.9239 29.4551 21.8362 29.4551Z" fill="#5F646D"/>
<path d="M38.4047 20.0604C38.3147 20.1505 38.2079 20.2219 38.0903 20.2707C37.9727 20.3194 37.8466 20.3445 37.7193 20.3445C37.592 20.3445 37.4659 20.3194 37.3483 20.2707C37.2307 20.2219 37.1239 20.1505 37.0339 20.0604L34.813 17.8383V30.0312C34.813 30.2882 34.711 30.5346 34.5293 30.7163C34.3476 30.8979 34.1012 31 33.8443 31C33.5874 31 33.341 30.8979 33.1593 30.7163C32.9776 30.5346 32.8755 30.2882 32.8755 30.0312V17.8383L30.6547 20.0604C30.4729 20.2422 30.2264 20.3443 29.9693 20.3443C29.7122 20.3443 29.4657 20.2422 29.2839 20.0604C29.1021 19.8786 29 19.6321 29 19.375C29 19.1179 29.1021 18.8714 29.2839 18.6896L33.1589 14.8146C33.2489 14.7245 33.3557 14.6531 33.4733 14.6043C33.5909 14.5556 33.717 14.5305 33.8443 14.5305C33.9716 14.5305 34.0977 14.5556 34.2153 14.6043C34.3329 14.6531 34.4397 14.7245 34.5297 14.8146L38.4047 18.6896C38.4948 18.7796 38.5662 18.8864 38.615 19.004C38.6637 19.1216 38.6888 19.2477 38.6888 19.375C38.6888 19.5023 38.6637 19.6284 38.615 19.746C38.5662 19.8636 38.4948 19.9704 38.4047 20.0604Z" fill="white"/>
<path d="M46.4047 11.0604C46.3147 11.1505 46.2079 11.2219 46.0903 11.2707C45.9727 11.3194 45.8466 11.3445 45.7193 11.3445C45.592 11.3445 45.4659 11.3194 45.3483 11.2707C45.2307 11.2219 45.1239 11.1505 45.0339 11.0604L42.813 8.83832V30.0312C42.813 30.2882 42.711 30.5346 42.5293 30.7163C42.3476 30.8979 42.1012 31 41.8443 31C41.5874 31 41.341 30.8979 41.1593 30.7163C40.9776 30.5346 40.8755 30.2882 40.8755 30.0312V8.83832L38.6547 11.0604C38.4729 11.2422 38.2264 11.3443 37.9693 11.3443C37.7122 11.3443 37.4657 11.2422 37.2839 11.0604C37.1021 10.8786 37 10.6321 37 10.375C37 10.1179 37.1021 9.87139 37.2839 9.68961L41.1589 5.81461C41.2489 5.72454 41.3557 5.65308 41.4733 5.60433C41.5909 5.55558 41.717 5.53049 41.8443 5.53049C41.9716 5.53049 42.0977 5.55558 42.2153 5.60433C42.3329 5.65308 42.4397 5.72454 42.5297 5.81461L46.4047 9.68961C46.4948 9.77958 46.5662 9.88642 46.615 10.004C46.6637 10.1216 46.6888 10.2477 46.6888 10.375C46.6888 10.5023 46.6637 10.6284 46.615 10.746C46.5662 10.8636 46.4948 10.9704 46.4047 11.0604Z" fill="white"/>
</svg>
