<svg width="25" height="25" viewBox="0 0 25 25" fill="none" xmlns="http://www.w3.org/2000/svg">
<path fill-rule="evenodd" clip-rule="evenodd" d="M16.9271 3.90625V5.66667L19.0105 7.33333V3.90625H16.9271ZM20.573 8.58333V3.64583C20.573 2.92708 19.9896 2.34375 19.2709 2.34375H16.6667C15.948 2.34375 15.3646 2.92708 15.3646 3.64583V4.41667L14.9407 4.07708C14.248 3.52277 13.3872 3.22077 12.5 3.22077C11.6129 3.22077 10.7521 3.52277 10.0594 4.07708L1.59587 10.8479C1.43398 10.9773 1.33014 11.1658 1.30718 11.3718C1.28423 11.5778 1.34405 11.7845 1.47348 11.9464C1.60291 12.1082 1.79135 12.2121 1.99735 12.235C2.20334 12.258 2.41002 12.1982 2.57192 12.0688L3.38546 11.4167V22.1354H2.08337C1.87617 22.1354 1.67746 22.2177 1.53095 22.3642C1.38443 22.5108 1.30212 22.7095 1.30212 22.9167C1.30212 23.1239 1.38443 23.3226 1.53095 23.4691C1.67746 23.6156 1.87617 23.6979 2.08337 23.6979H22.9167C23.1239 23.6979 23.3226 23.6156 23.4691 23.4691C23.6156 23.3226 23.698 23.1239 23.698 22.9167C23.698 22.7095 23.6156 22.5108 23.4691 22.3642C23.3226 22.2177 23.1239 22.1354 22.9167 22.1354H21.6146V11.4167L22.4292 12.0688C22.5914 12.1951 22.7968 12.2525 23.001 12.2284C23.2051 12.2043 23.3916 12.1007 23.5199 11.9401C23.6482 11.7794 23.708 11.5747 23.6863 11.3702C23.6647 11.1658 23.5633 10.9781 23.4042 10.8479L20.573 8.58333ZM20.0521 10.1667L13.9646 5.29688C13.549 4.96419 13.0324 4.78292 12.5 4.78292C11.9676 4.78292 11.4511 4.96419 11.0355 5.29688L4.94796 10.1667V22.1354H8.59379V17.6563C8.59379 16.9646 8.59379 16.3677 8.65837 15.8896C8.72712 15.3771 8.88233 14.8865 9.28025 14.4885C9.67817 14.0906 10.1698 13.9354 10.6813 13.8667C11.1594 13.8021 11.7563 13.8021 12.449 13.8021H12.5511C13.2438 13.8021 13.8407 13.8021 14.3188 13.8667C14.8313 13.9354 15.3219 14.0906 15.7198 14.4885C16.1177 14.8865 16.273 15.3771 16.3417 15.8896C16.4063 16.3677 16.4063 16.9646 16.4063 17.6573V22.1354H20.0521V10.1667ZM14.8438 22.1354V17.7083C14.8438 16.95 14.8417 16.4583 14.7938 16.0979C14.748 15.7594 14.675 15.6531 14.6146 15.5938C14.5542 15.5344 14.449 15.4604 14.1105 15.4146C13.749 15.3667 13.2584 15.3646 12.5 15.3646C11.7417 15.3646 11.25 15.3667 10.8896 15.4146C10.5511 15.4604 10.4448 15.5344 10.3855 15.5938C10.3261 15.6531 10.2521 15.7594 10.2063 16.0979C10.1584 16.4594 10.1563 16.95 10.1563 17.7083V22.1354H14.8438ZM12.5 8.59375C12.329 8.59375 12.1597 8.62743 12.0018 8.69287C11.8438 8.7583 11.7002 8.85421 11.5793 8.97512C11.4584 9.09603 11.3625 9.23957 11.2971 9.39755C11.2316 9.55552 11.198 9.72484 11.198 9.89583C11.198 10.0668 11.2316 10.2361 11.2971 10.3941C11.3625 10.5521 11.4584 10.6956 11.5793 10.8165C11.7002 10.9375 11.8438 11.0334 12.0018 11.0988C12.1597 11.1642 12.329 11.1979 12.5 11.1979C12.8454 11.1979 13.1766 11.0607 13.4208 10.8165C13.6649 10.5724 13.8021 10.2412 13.8021 9.89583C13.8021 9.5505 13.6649 9.21931 13.4208 8.97512C13.1766 8.73093 12.8454 8.59375 12.5 8.59375ZM9.63546 9.89583C9.63546 9.1361 9.93726 8.40748 10.4745 7.87027C11.0117 7.33305 11.7403 7.03125 12.5 7.03125C13.2598 7.03125 13.9884 7.33305 14.5256 7.87027C15.0628 8.40748 15.3646 9.1361 15.3646 9.89583C15.3646 10.6556 15.0628 11.3842 14.5256 11.9214C13.9884 12.4586 13.2598 12.7604 12.5 12.7604C11.7403 12.7604 11.0117 12.4586 10.4745 11.9214C9.93726 11.3842 9.63546 10.6556 9.63546 9.89583Z" fill="white"/>
</svg>
