<svg width="26" height="25" viewBox="0 0 26 25" fill="none" xmlns="http://www.w3.org/2000/svg">
<path d="M6.75 7.03125C6.13193 7.03125 5.52775 6.84797 5.01384 6.50459C4.49994 6.16121 4.0994 5.67316 3.86288 5.10214C3.62635 4.53112 3.56447 3.90279 3.68505 3.29659C3.80562 2.6904 4.10325 2.13358 4.54029 1.69654C4.97733 1.2595 5.53415 0.961876 6.14034 0.841297C6.74653 0.720719 7.37487 0.782604 7.94589 1.01913C8.51691 1.25565 9.00496 1.65619 9.34834 2.17009C9.69172 2.684 9.875 3.28819 9.875 3.90625C9.875 4.73505 9.54576 5.52991 8.95971 6.11596C8.37366 6.70201 7.5788 7.03125 6.75 7.03125ZM6.75 2.34375C6.44097 2.34375 6.13887 2.43539 5.88192 2.60708C5.62497 2.77877 5.4247 3.0228 5.30644 3.30831C5.18818 3.59382 5.15723 3.90798 5.21752 4.21108C5.27781 4.51418 5.42663 4.79259 5.64515 5.01111C5.86367 5.22963 6.14208 5.37844 6.44517 5.43873C6.74827 5.49902 7.06243 5.46808 7.34794 5.34981C7.63345 5.23155 7.87748 5.03128 8.04917 4.77433C8.22086 4.51738 8.3125 4.21529 8.3125 3.90625C8.3125 3.49185 8.14788 3.09442 7.85485 2.8014C7.56183 2.50837 7.1644 2.34375 6.75 2.34375ZM19.25 7.03125C18.6319 7.03125 18.0277 6.84797 17.5138 6.50459C16.9999 6.16121 16.5994 5.67316 16.3629 5.10214C16.1264 4.53112 16.0645 3.90279 16.185 3.29659C16.3056 2.6904 16.6033 2.13358 17.0403 1.69654C17.4773 1.2595 18.0342 0.961876 18.6403 0.841297C19.2465 0.720719 19.8749 0.782604 20.4459 1.01913C21.0169 1.25565 21.505 1.65619 21.8483 2.17009C22.1917 2.684 22.375 3.28819 22.375 3.90625C22.375 4.73505 22.0458 5.52991 21.4597 6.11596C20.8737 6.70201 20.0788 7.03125 19.25 7.03125ZM19.25 2.34375C18.941 2.34375 18.6389 2.43539 18.3819 2.60708C18.125 2.77877 17.9247 3.0228 17.8064 3.30831C17.6882 3.59382 17.6572 3.90798 17.7175 4.21108C17.7778 4.51418 17.9266 4.79259 18.1451 5.01111C18.3637 5.22963 18.6421 5.37844 18.9452 5.43873C19.2483 5.49902 19.5624 5.46808 19.8479 5.34981C20.1335 5.23155 20.3775 5.03128 20.5492 4.77433C20.7209 4.51738 20.8125 4.21529 20.8125 3.90625C20.8125 3.49185 20.6479 3.09442 20.3549 2.8014C20.0618 2.50837 19.6644 2.34375 19.25 2.34375ZM20.8125 23.4375H17.6875C17.2731 23.4375 16.8757 23.2729 16.5826 22.9799C16.2896 22.6868 16.125 22.2894 16.125 21.875V16.4063H17.6875V21.875H20.8125V14.8438H22.375V10.1563C22.375 9.94905 22.2927 9.75034 22.1462 9.60382C21.9997 9.45731 21.801 9.375 21.5938 9.375H16.5781L13 15.625L9.42188 9.375H4.40625C4.19905 9.375 4.00034 9.45731 3.85382 9.60382C3.70731 9.75034 3.625 9.94905 3.625 10.1563V14.8438H5.1875V21.875H8.3125V16.4063H9.875V21.875C9.875 22.2894 9.71038 22.6868 9.41735 22.9799C9.12433 23.2729 8.7269 23.4375 8.3125 23.4375H5.1875C4.7731 23.4375 4.37567 23.2729 4.08265 22.9799C3.78962 22.6868 3.625 22.2894 3.625 21.875V16.4063C3.2106 16.4063 2.81317 16.2416 2.52015 15.9486C2.22712 15.6556 2.0625 15.2582 2.0625 14.8438V10.1563C2.0625 9.53465 2.30943 8.93851 2.74897 8.49897C3.18851 8.05943 3.78465 7.8125 4.40625 7.8125H10.3281L13 12.5L15.6719 7.8125H21.5938C22.2154 7.8125 22.8115 8.05943 23.251 8.49897C23.6906 8.93851 23.9375 9.53465 23.9375 10.1563V14.8438C23.9375 15.2582 23.7729 15.6556 23.4799 15.9486C23.1868 16.2416 22.7894 16.4063 22.375 16.4063V21.875C22.375 22.2894 22.2104 22.6868 21.9174 22.9799C21.6243 23.2729 21.2269 23.4375 20.8125 23.4375Z" fill="white"/>
</svg>
