<svg width="31" height="35" viewBox="0 0 31 35" fill="none" xmlns="http://www.w3.org/2000/svg">
<path d="M28.0938 27.5553V32.5625C28.0938 32.8194 27.9917 33.0658 27.81 33.2475C27.6283 33.4292 27.3819 33.5312 27.125 33.5312C26.8681 33.5312 26.6217 33.4292 26.44 33.2475C26.2583 33.0658 26.1562 32.8194 26.1562 32.5625V27.5553C26.1517 26.3118 25.8914 25.0826 25.3914 23.9441C24.8914 22.8056 24.1625 21.7822 23.25 20.9375V28.0033C23.2498 28.2118 23.1824 28.4147 23.0577 28.5818C22.9331 28.7489 22.7578 28.8713 22.5581 28.9309C22.3583 28.9904 22.1446 28.984 21.9488 28.9124C21.753 28.8409 21.5855 28.708 21.4711 28.5337L20.1779 26.5587C20.1682 26.5441 20.1585 26.5284 20.15 26.5127C19.96 26.1772 19.6446 25.931 19.2731 25.8281C18.9015 25.7252 18.5044 25.7741 18.1689 25.9641C17.8335 26.1541 17.5872 26.4695 17.4843 26.841C17.3815 27.2126 17.4304 27.6097 17.6204 27.9452L20.3002 32.037C20.4408 32.252 20.4903 32.5141 20.4377 32.7656C20.3852 33.0171 20.2348 33.2374 20.0198 33.3781C19.8048 33.5187 19.5427 33.5682 19.2912 33.5157C19.0397 33.4631 18.8194 33.3128 18.6787 33.0977L15.9832 28.9805L15.9541 28.9345C15.5368 28.2195 15.3956 27.3764 15.5571 26.5644C15.7185 25.7524 16.1715 25.0275 16.8306 24.5265C17.4897 24.0254 18.3093 23.7828 19.1349 23.8444C19.9605 23.9061 20.7351 24.2676 21.3125 24.8609V11.25H19.375C19.1181 11.25 18.8717 11.1479 18.69 10.9663C18.5083 10.7846 18.4062 10.5382 18.4062 10.2812C18.4062 10.0243 18.5083 9.77792 18.69 9.59624C18.8717 9.41456 19.1181 9.3125 19.375 9.3125H21.3125C21.8264 9.3125 22.3192 9.51663 22.6825 9.87998C23.0459 10.2433 23.25 10.7361 23.25 11.25V18.4696C24.7369 19.4744 25.9556 20.8275 26.7998 22.4111C27.6441 23.9947 28.0883 25.7607 28.0938 27.5553ZM10.6562 10.2812C10.6562 10.0243 10.5542 9.77792 10.3725 9.59624C10.1908 9.41456 9.94443 9.3125 9.6875 9.3125H7.75C7.23614 9.3125 6.74333 9.51663 6.37998 9.87998C6.01663 10.2433 5.8125 10.7361 5.8125 11.25V27.7188C5.8125 27.9757 5.91456 28.2221 6.09624 28.4038C6.27792 28.5854 6.52432 28.6875 6.78125 28.6875C7.03818 28.6875 7.28458 28.5854 7.46626 28.4038C7.64794 28.2221 7.75 27.9757 7.75 27.7188V11.25H9.6875C9.94443 11.25 10.1908 11.1479 10.3725 10.9663C10.5542 10.7846 10.6562 10.5382 10.6562 10.2812Z" fill="white"/>
<path d="M19.0917 7.03012C19.0017 7.12019 18.8949 7.19164 18.7773 7.24039C18.6597 7.28915 18.5336 7.31424 18.4063 7.31424C18.279 7.31424 18.1529 7.28915 18.0353 7.24039C17.9177 7.19164 17.8109 7.12019 17.7209 7.03012L15.5001 4.80805V17.001C15.5001 17.2579 15.398 17.5043 15.2163 17.686C15.0346 17.8677 14.7882 17.9697 14.5313 17.9697C14.2744 17.9697 14.028 17.8677 13.8463 17.686C13.6646 17.5043 13.5626 17.2579 13.5626 17.001V4.80805L11.3417 7.03012C11.1599 7.21189 10.9134 7.31402 10.6563 7.31402C10.3992 7.31402 10.1527 7.21189 9.97091 7.03012C9.78913 6.84834 9.68701 6.6018 9.68701 6.34473C9.68701 6.08766 9.78913 5.84111 9.97091 5.65934L13.8459 1.78434C13.9359 1.69427 14.0427 1.62281 14.1603 1.57406C14.2779 1.52531 14.404 1.50022 14.5313 1.50022C14.6586 1.50022 14.7847 1.52531 14.9023 1.57406C15.0199 1.62281 15.1267 1.69427 15.2167 1.78434L19.0917 5.65934C19.1818 5.74931 19.2532 5.85615 19.302 5.97375C19.3507 6.09136 19.3758 6.21742 19.3758 6.34473C19.3758 6.47204 19.3507 6.5981 19.302 6.7157C19.2532 6.8333 19.1818 6.94015 19.0917 7.03012Z" fill="white"/>
</svg>
