<svg width="31" height="35" viewBox="0 0 31 35" fill="none" xmlns="http://www.w3.org/2000/svg">
<path d="M28.0938 27.5553V32.5625C28.0938 32.8194 27.9917 33.0658 27.81 33.2475C27.6283 33.4292 27.3819 33.5312 27.125 33.5312C26.8681 33.5312 26.6217 33.4292 26.44 33.2475C26.2583 33.0658 26.1562 32.8194 26.1562 32.5625V27.5553C26.1517 26.3118 25.8914 25.0826 25.3914 23.9441C24.8914 22.8056 24.1625 21.7822 23.25 20.9375V28.0033C23.2498 28.2118 23.1824 28.4147 23.0577 28.5818C22.9331 28.7489 22.7578 28.8713 22.5581 28.9309C22.3583 28.9904 22.1446 28.984 21.9488 28.9124C21.753 28.8409 21.5855 28.708 21.4711 28.5337L20.1779 26.5587C20.1682 26.5441 20.1585 26.5284 20.15 26.5127C19.96 26.1772 19.6446 25.931 19.2731 25.8281C18.9015 25.7252 18.5044 25.7741 18.1689 25.9641C17.8335 26.1541 17.5872 26.4695 17.4843 26.841C17.3815 27.2126 17.4304 27.6097 17.6204 27.9452L20.3002 32.037C20.4408 32.252 20.4903 32.5141 20.4377 32.7656C20.3852 33.0171 20.2348 33.2374 20.0198 33.3781C19.8048 33.5187 19.5427 33.5682 19.2912 33.5157C19.0397 33.4631 18.8194 33.3127 18.6787 33.0977L15.9832 28.9805L15.9541 28.9345C15.5368 28.2195 15.3956 27.3764 15.5571 26.5644C15.7185 25.7524 16.1715 25.0275 16.8306 24.5265C17.4897 24.0254 18.3093 23.7828 19.1349 23.8444C19.9605 23.9061 20.7351 24.2676 21.3125 24.8609V11.25H19.375C19.1181 11.25 18.8717 11.1479 18.69 10.9663C18.5083 10.7846 18.4062 10.5382 18.4062 10.2812C18.4062 10.0243 18.5083 9.77792 18.69 9.59624C18.8717 9.41457 19.1181 9.3125 19.375 9.3125H21.3125C21.8264 9.3125 22.3192 9.51663 22.6825 9.87998C23.0459 10.2433 23.25 10.7361 23.25 11.25V18.4696C24.7369 19.4744 25.9556 20.8275 26.7998 22.4111C27.6441 23.9947 28.0883 25.7607 28.0938 27.5553ZM10.6562 10.2812C10.6562 10.0243 10.5542 9.77792 10.3725 9.59624C10.1908 9.41457 9.94443 9.3125 9.6875 9.3125H7.75C7.23614 9.3125 6.74333 9.51663 6.37998 9.87998C6.01663 10.2433 5.8125 10.7361 5.8125 11.25V27.7188C5.8125 27.9757 5.91456 28.2221 6.09624 28.4038C6.27792 28.5854 6.52432 28.6875 6.78125 28.6875C7.03818 28.6875 7.28458 28.5854 7.46626 28.4038C7.64794 28.2221 7.75 27.9757 7.75 27.7188V11.25H9.6875C9.94443 11.25 10.1908 11.1479 10.3725 10.9663C10.5542 10.7846 10.6562 10.5382 10.6562 10.2812ZM19.0916 13.4084C19.0017 13.3183 18.8948 13.2468 18.7772 13.1981C18.6596 13.1493 18.5336 13.1242 18.4062 13.1242C18.2789 13.1242 18.1529 13.1493 18.0353 13.1981C17.9177 13.2468 17.8108 13.3183 17.7209 13.4084L15.5 15.6304V3.4375C15.5 3.18057 15.3979 2.93417 15.2163 2.75249C15.0346 2.57081 14.7882 2.46875 14.5312 2.46875C14.2743 2.46875 14.0279 2.57081 13.8462 2.75249C13.6646 2.93417 13.5625 3.18057 13.5625 3.4375V15.6304L11.3416 13.4084C11.1599 13.2266 10.9133 13.1245 10.6562 13.1245C10.3992 13.1245 10.1526 13.2266 9.97086 13.4084C9.78908 13.5901 9.68696 13.8367 9.68696 14.0938C9.68696 14.3508 9.78908 14.5974 9.97086 14.7791L13.8459 18.6541C13.9358 18.7442 14.0427 18.8157 14.1603 18.8644C14.2779 18.9132 14.4039 18.9383 14.5312 18.9383C14.6586 18.9383 14.7846 18.9132 14.9022 18.8644C15.0198 18.8157 15.1267 18.7442 15.2166 18.6541L19.0916 14.7791C19.1817 14.6892 19.2532 14.5823 19.3019 14.4647C19.3507 14.3471 19.3758 14.2211 19.3758 14.0938C19.3758 13.9664 19.3507 13.8404 19.3019 13.7228C19.2532 13.6052 19.1817 13.4983 19.0916 13.4084Z" fill="white"/>
</svg>
