<!-- icon666.com - MILLIONS vector ICONS FREE --><svg clip-rule="evenodd" fill-rule="evenodd" stroke-linejoin="round" stroke-miterlimit="2" viewBox="0 0 25 25" xmlns="http://www.w3.org/2000/svg"><g><path d="m22 15.914v1.586c0 1.381-1.119 2.5-2.5 2.5h-15c-1.381 0-2.5-1.119-2.5-2.5v-10c0-1.381 1.119-2.5 2.5-2.5h15c1.381 0 2.5 1.119 2.5 2.5v1.586c.209.074.401.194.561.353.281.282.439.663.439 1.061v4c0 .398-.158.779-.439 1.061-.16.159-.352.279-.561.353zm-1-6.914v-1.5c0-.828-.672-1.5-1.5-1.5h-15c-.828 0-1.5.672-1.5 1.5v10c0 .828.672 1.5 1.5 1.5h15c.828 0 1.5-.672 1.5-1.5v-1.5h-4.502c-.928 0-1.817-.369-2.473-1.025s-1.025-1.545-1.025-2.473v-.004c0-.928.369-1.817 1.025-2.473s1.545-1.025 2.473-1.025zm1 1.5v4c0 .133-.053.26-.146.354-.094.093-.221.146-.354.146h-5.002c-.663 0-1.298-.263-1.766-.732-.469-.468-.732-1.103-.732-1.766v-.004c0-.663.263-1.298.732-1.766.468-.469 1.103-.732 1.766-.732h5.002c.133 0 .26.053.354.146.093.094.146.221.146.354zm-5.5.5c-.828 0-1.5.672-1.5 1.5s.672 1.5 1.5 1.5 1.5-.672 1.5-1.5-.672-1.5-1.5-1.5zm0 1c.276 0 .5.224.5.5s-.224.5-.5.5-.5-.224-.5-.5.224-.5.5-.5z" fill="#000000" style="fill: rgb(138, 82, 212);"></path></g></svg>