<svg width="24" height="24" viewBox="0 0 24 24" fill="none" xmlns="http://www.w3.org/2000/svg">
<path d="M9.17307 14.8299C8.80162 14.4585 8.50698 14.0175 8.30595 13.5322C8.10493 13.0469 8.00146 12.5267 8.00146 12.0014C8.00146 11.4761 8.10493 10.956 8.30595 10.4707C8.50698 9.98536 8.80162 9.54439 9.17307 9.17295C9.54451 8.8015 9.98548 8.50686 10.4708 8.30583C10.9561 8.10481 11.4763 8.00134 12.0016 8.00134C12.5269 8.00134 13.047 8.10481 13.5323 8.30583C14.0177 8.50686 14.4586 8.8015 14.8301 9.17295" stroke="#8A52D4" stroke-width="2" stroke-linecap="round" stroke-linejoin="round"/>
<path d="M11.294 12.707L11.468 12.954C12.4572 14.2915 13.863 15.2621 15.4641 15.7133C17.0653 16.1644 18.7711 16.0704 20.313 15.446C19.7455 16.8115 18.8504 18.0161 17.7066 18.9534C16.5629 19.8906 15.2058 20.5317 13.7555 20.8197C12.3051 21.1078 10.8061 21.0341 9.39095 20.6051C7.97584 20.1761 6.68824 19.405 5.642 18.36M3 12H4M12 3V4M5.6 5.6L6.3 6.3M3 21L21 3" stroke="#8A52D4" stroke-width="2" stroke-linecap="round" stroke-linejoin="round"/>
</svg>
