<svg width="26" height="25" viewBox="0 0 26 25" fill="none" xmlns="http://www.w3.org/2000/svg">
<path d="M8.2892 18.3313C8.56927 18.3313 8.80395 18.2362 8.99323 18.0461C9.18165 17.8568 9.27587 17.6217 9.27587 17.3408C9.27587 17.0599 9.1808 16.8252 8.99066 16.6368C8.80052 16.4483 8.56542 16.3541 8.28535 16.3541C8.00528 16.3541 7.7706 16.4492 7.58132 16.6393C7.39204 16.8295 7.29782 17.0646 7.29868 17.3446C7.29954 17.6247 7.39461 17.859 7.58389 18.0474C7.77317 18.2358 8.00827 18.3313 8.2892 18.3313ZM8.2892 13.4879C8.56927 13.4879 8.80395 13.3933 8.99323 13.204C9.18165 13.0138 9.27587 12.7783 9.27587 12.4974C9.27587 12.2164 9.1808 11.9822 8.99066 11.7946C8.80052 11.6071 8.56542 11.5128 8.28535 11.512C8.00528 11.5111 7.7706 11.6058 7.58132 11.7959C7.39204 11.9861 7.29782 12.2216 7.29868 12.5025C7.29954 12.7834 7.39461 13.0177 7.58389 13.2053C7.77317 13.3928 8.00827 13.487 8.2892 13.4879ZM8.2892 8.64578C8.56927 8.64578 8.80395 8.55114 8.99323 8.36186C9.18165 8.17172 9.27587 7.93618 9.27587 7.65526C9.27587 7.37433 9.1808 7.14008 8.99066 6.95252C8.80052 6.76495 8.56542 6.67073 8.28535 6.66988C8.00528 6.66902 7.7706 6.76366 7.58132 6.9538C7.39289 7.14394 7.29868 7.37904 7.29868 7.65911C7.29868 7.93918 7.39375 8.17386 7.58389 8.36314C7.77403 8.55242 8.00913 8.64664 8.2892 8.64578ZM12.2397 17.9857H19.1579V16.701H12.2397V17.9857ZM12.2397 13.1423H19.1579V11.8576H12.2397V13.1423ZM12.2397 8.2989H19.1579V7.01418H12.2397V8.2989ZM5.07611 22.7777C4.48428 22.7777 3.99052 22.5799 3.59483 22.1842C3.19913 21.7885 3.00086 21.2943 3 20.7016V4.29828C3 3.70645 3.19828 3.21269 3.59483 2.81699C3.99138 2.4213 4.48514 2.22302 5.07611 2.22217H21.4807C22.0717 2.22217 22.5655 2.42044 22.962 2.81699C23.3586 3.21354 23.5564 3.70731 23.5556 4.29828V20.7029C23.5556 21.2939 23.3577 21.7876 22.962 22.1842C22.5663 22.5807 22.0721 22.7786 21.4794 22.7777H5.07611ZM5.07611 21.493H21.4807C21.6777 21.493 21.8589 21.4108 22.0242 21.2463C22.1895 21.0819 22.2717 20.9003 22.2708 20.7016V4.29828C22.2708 4.10043 22.1886 3.91886 22.0242 3.75356C21.8597 3.58826 21.6781 3.50603 21.4794 3.50689H5.07611C4.87826 3.50689 4.69669 3.58911 4.53139 3.75356C4.36609 3.918 4.28387 4.09958 4.28472 4.29828V20.7029C4.28472 20.8999 4.36694 21.081 4.53139 21.2463C4.69583 21.4116 4.87698 21.4939 5.07483 21.493" fill="white"/>
</svg>
